<?xml version="1.0" encoding="utf-8" standalone="no"?>
<!DOCTYPE svg PUBLIC "-//W3C//DTD SVG 1.1//EN"
  "http://www.w3.org/Graphics/SVG/1.1/DTD/svg11.dtd">
<!-- Created with matplotlib (https://matplotlib.org/) -->
<svg height="288pt" version="1.1" viewBox="0 0 432 288" width="432pt" xmlns="http://www.w3.org/2000/svg" xmlns:xlink="http://www.w3.org/1999/xlink">
 <defs>
  <style type="text/css">
*{stroke-linecap:butt;stroke-linejoin:round;}
  </style>
 </defs>
 <g id="figure_1">
  <g id="patch_1">
   <path d="M 0 288 
L 432 288 
L 432 0 
L 0 0 
z
" style="fill:#ffffff;"/>
  </g>
  <g id="axes_1">
   <g id="patch_2">
    <path d="M 54 252 
L 388.8 252 
L 388.8 34.56 
L 54 34.56 
z
" style="fill:#ffffff;"/>
   </g>
   <g id="matplotlib.axis_1">
    <g id="xtick_1">
     <g id="line2d_1">
      <defs>
       <path d="M 0 0 
L 0 3.5 
" id="m884d01e488" style="stroke:#000000;stroke-width:0.8;"/>
      </defs>
      <g>
       <use style="stroke:#000000;stroke-width:0.8;" x="69.218182" xlink:href="#m884d01e488" y="252"/>
      </g>
     </g>
     <g id="text_1">
      <!-- 0 -->
      <defs>
       <path d="M 31.78125 66.40625 
Q 24.171875 66.40625 20.328125 58.90625 
Q 16.5 51.421875 16.5 36.375 
Q 16.5 21.390625 20.328125 13.890625 
Q 24.171875 6.390625 31.78125 6.390625 
Q 39.453125 6.390625 43.28125 13.890625 
Q 47.125 21.390625 47.125 36.375 
Q 47.125 51.421875 43.28125 58.90625 
Q 39.453125 66.40625 31.78125 66.40625 
z
M 31.78125 74.21875 
Q 44.046875 74.21875 50.515625 64.515625 
Q 56.984375 54.828125 56.984375 36.375 
Q 56.984375 17.96875 50.515625 8.265625 
Q 44.046875 -1.421875 31.78125 -1.421875 
Q 19.53125 -1.421875 13.0625 8.265625 
Q 6.59375 17.96875 6.59375 36.375 
Q 6.59375 54.828125 13.0625 64.515625 
Q 19.53125 74.21875 31.78125 74.21875 
z
" id="DejaVuSans-48"/>
      </defs>
      <g transform="translate(66.036932 266.598437)scale(0.1 -0.1)">
       <use xlink:href="#DejaVuSans-48"/>
      </g>
     </g>
    </g>
    <g id="xtick_2">
     <g id="line2d_2">
      <g>
       <use style="stroke:#000000;stroke-width:0.8;" x="130.151843" xlink:href="#m884d01e488" y="252"/>
      </g>
     </g>
     <g id="text_2">
      <!-- 200 -->
      <defs>
       <path d="M 19.1875 8.296875 
L 53.609375 8.296875 
L 53.609375 0 
L 7.328125 0 
L 7.328125 8.296875 
Q 12.9375 14.109375 22.625 23.890625 
Q 32.328125 33.6875 34.8125 36.53125 
Q 39.546875 41.84375 41.421875 45.53125 
Q 43.3125 49.21875 43.3125 52.78125 
Q 43.3125 58.59375 39.234375 62.25 
Q 35.15625 65.921875 28.609375 65.921875 
Q 23.96875 65.921875 18.8125 64.3125 
Q 13.671875 62.703125 7.8125 59.421875 
L 7.8125 69.390625 
Q 13.765625 71.78125 18.9375 73 
Q 24.125 74.21875 28.421875 74.21875 
Q 39.75 74.21875 46.484375 68.546875 
Q 53.21875 62.890625 53.21875 53.421875 
Q 53.21875 48.921875 51.53125 44.890625 
Q 49.859375 40.875 45.40625 35.40625 
Q 44.1875 33.984375 37.640625 27.21875 
Q 31.109375 20.453125 19.1875 8.296875 
z
" id="DejaVuSans-50"/>
      </defs>
      <g transform="translate(120.608093 266.598437)scale(0.1 -0.1)">
       <use xlink:href="#DejaVuSans-50"/>
       <use x="63.623047" xlink:href="#DejaVuSans-48"/>
       <use x="127.246094" xlink:href="#DejaVuSans-48"/>
      </g>
     </g>
    </g>
    <g id="xtick_3">
     <g id="line2d_3">
      <g>
       <use style="stroke:#000000;stroke-width:0.8;" x="191.085504" xlink:href="#m884d01e488" y="252"/>
      </g>
     </g>
     <g id="text_3">
      <!-- 400 -->
      <defs>
       <path d="M 37.796875 64.3125 
L 12.890625 25.390625 
L 37.796875 25.390625 
z
M 35.203125 72.90625 
L 47.609375 72.90625 
L 47.609375 25.390625 
L 58.015625 25.390625 
L 58.015625 17.1875 
L 47.609375 17.1875 
L 47.609375 0 
L 37.796875 0 
L 37.796875 17.1875 
L 4.890625 17.1875 
L 4.890625 26.703125 
z
" id="DejaVuSans-52"/>
      </defs>
      <g transform="translate(181.541754 266.598437)scale(0.1 -0.1)">
       <use xlink:href="#DejaVuSans-52"/>
       <use x="63.623047" xlink:href="#DejaVuSans-48"/>
       <use x="127.246094" xlink:href="#DejaVuSans-48"/>
      </g>
     </g>
    </g>
    <g id="xtick_4">
     <g id="line2d_4">
      <g>
       <use style="stroke:#000000;stroke-width:0.8;" x="252.019165" xlink:href="#m884d01e488" y="252"/>
      </g>
     </g>
     <g id="text_4">
      <!-- 600 -->
      <defs>
       <path d="M 33.015625 40.375 
Q 26.375 40.375 22.484375 35.828125 
Q 18.609375 31.296875 18.609375 23.390625 
Q 18.609375 15.53125 22.484375 10.953125 
Q 26.375 6.390625 33.015625 6.390625 
Q 39.65625 6.390625 43.53125 10.953125 
Q 47.40625 15.53125 47.40625 23.390625 
Q 47.40625 31.296875 43.53125 35.828125 
Q 39.65625 40.375 33.015625 40.375 
z
M 52.59375 71.296875 
L 52.59375 62.3125 
Q 48.875 64.0625 45.09375 64.984375 
Q 41.3125 65.921875 37.59375 65.921875 
Q 27.828125 65.921875 22.671875 59.328125 
Q 17.53125 52.734375 16.796875 39.40625 
Q 19.671875 43.65625 24.015625 45.921875 
Q 28.375 48.1875 33.59375 48.1875 
Q 44.578125 48.1875 50.953125 41.515625 
Q 57.328125 34.859375 57.328125 23.390625 
Q 57.328125 12.15625 50.6875 5.359375 
Q 44.046875 -1.421875 33.015625 -1.421875 
Q 20.359375 -1.421875 13.671875 8.265625 
Q 6.984375 17.96875 6.984375 36.375 
Q 6.984375 53.65625 15.1875 63.9375 
Q 23.390625 74.21875 37.203125 74.21875 
Q 40.921875 74.21875 44.703125 73.484375 
Q 48.484375 72.75 52.59375 71.296875 
z
" id="DejaVuSans-54"/>
      </defs>
      <g transform="translate(242.475415 266.598437)scale(0.1 -0.1)">
       <use xlink:href="#DejaVuSans-54"/>
       <use x="63.623047" xlink:href="#DejaVuSans-48"/>
       <use x="127.246094" xlink:href="#DejaVuSans-48"/>
      </g>
     </g>
    </g>
    <g id="xtick_5">
     <g id="line2d_5">
      <g>
       <use style="stroke:#000000;stroke-width:0.8;" x="312.952826" xlink:href="#m884d01e488" y="252"/>
      </g>
     </g>
     <g id="text_5">
      <!-- 800 -->
      <defs>
       <path d="M 31.78125 34.625 
Q 24.75 34.625 20.71875 30.859375 
Q 16.703125 27.09375 16.703125 20.515625 
Q 16.703125 13.921875 20.71875 10.15625 
Q 24.75 6.390625 31.78125 6.390625 
Q 38.8125 6.390625 42.859375 10.171875 
Q 46.921875 13.96875 46.921875 20.515625 
Q 46.921875 27.09375 42.890625 30.859375 
Q 38.875 34.625 31.78125 34.625 
z
M 21.921875 38.8125 
Q 15.578125 40.375 12.03125 44.71875 
Q 8.5 49.078125 8.5 55.328125 
Q 8.5 64.0625 14.71875 69.140625 
Q 20.953125 74.21875 31.78125 74.21875 
Q 42.671875 74.21875 48.875 69.140625 
Q 55.078125 64.0625 55.078125 55.328125 
Q 55.078125 49.078125 51.53125 44.71875 
Q 48 40.375 41.703125 38.8125 
Q 48.828125 37.15625 52.796875 32.3125 
Q 56.78125 27.484375 56.78125 20.515625 
Q 56.78125 9.90625 50.3125 4.234375 
Q 43.84375 -1.421875 31.78125 -1.421875 
Q 19.734375 -1.421875 13.25 4.234375 
Q 6.78125 9.90625 6.78125 20.515625 
Q 6.78125 27.484375 10.78125 32.3125 
Q 14.796875 37.15625 21.921875 38.8125 
z
M 18.3125 54.390625 
Q 18.3125 48.734375 21.84375 45.5625 
Q 25.390625 42.390625 31.78125 42.390625 
Q 38.140625 42.390625 41.71875 45.5625 
Q 45.3125 48.734375 45.3125 54.390625 
Q 45.3125 60.0625 41.71875 63.234375 
Q 38.140625 66.40625 31.78125 66.40625 
Q 25.390625 66.40625 21.84375 63.234375 
Q 18.3125 60.0625 18.3125 54.390625 
z
" id="DejaVuSans-56"/>
      </defs>
      <g transform="translate(303.409076 266.598437)scale(0.1 -0.1)">
       <use xlink:href="#DejaVuSans-56"/>
       <use x="63.623047" xlink:href="#DejaVuSans-48"/>
       <use x="127.246094" xlink:href="#DejaVuSans-48"/>
      </g>
     </g>
    </g>
    <g id="xtick_6">
     <g id="line2d_6">
      <g>
       <use style="stroke:#000000;stroke-width:0.8;" x="373.886486" xlink:href="#m884d01e488" y="252"/>
      </g>
     </g>
     <g id="text_6">
      <!-- 1000 -->
      <defs>
       <path d="M 12.40625 8.296875 
L 28.515625 8.296875 
L 28.515625 63.921875 
L 10.984375 60.40625 
L 10.984375 69.390625 
L 28.421875 72.90625 
L 38.28125 72.90625 
L 38.28125 8.296875 
L 54.390625 8.296875 
L 54.390625 0 
L 12.40625 0 
z
" id="DejaVuSans-49"/>
      </defs>
      <g transform="translate(361.161486 266.598437)scale(0.1 -0.1)">
       <use xlink:href="#DejaVuSans-49"/>
       <use x="63.623047" xlink:href="#DejaVuSans-48"/>
       <use x="127.246094" xlink:href="#DejaVuSans-48"/>
       <use x="190.869141" xlink:href="#DejaVuSans-48"/>
      </g>
     </g>
    </g>
    <g id="text_7">
     <!-- numbers -->
     <defs>
      <path d="M 54.890625 33.015625 
L 54.890625 0 
L 45.90625 0 
L 45.90625 32.71875 
Q 45.90625 40.484375 42.875 44.328125 
Q 39.84375 48.1875 33.796875 48.1875 
Q 26.515625 48.1875 22.3125 43.546875 
Q 18.109375 38.921875 18.109375 30.90625 
L 18.109375 0 
L 9.078125 0 
L 9.078125 54.6875 
L 18.109375 54.6875 
L 18.109375 46.1875 
Q 21.34375 51.125 25.703125 53.5625 
Q 30.078125 56 35.796875 56 
Q 45.21875 56 50.046875 50.171875 
Q 54.890625 44.34375 54.890625 33.015625 
z
" id="DejaVuSans-110"/>
      <path d="M 8.5 21.578125 
L 8.5 54.6875 
L 17.484375 54.6875 
L 17.484375 21.921875 
Q 17.484375 14.15625 20.5 10.265625 
Q 23.53125 6.390625 29.59375 6.390625 
Q 36.859375 6.390625 41.078125 11.03125 
Q 45.3125 15.671875 45.3125 23.6875 
L 45.3125 54.6875 
L 54.296875 54.6875 
L 54.296875 0 
L 45.3125 0 
L 45.3125 8.40625 
Q 42.046875 3.421875 37.71875 1 
Q 33.40625 -1.421875 27.6875 -1.421875 
Q 18.265625 -1.421875 13.375 4.4375 
Q 8.5 10.296875 8.5 21.578125 
z
M 31.109375 56 
z
" id="DejaVuSans-117"/>
      <path d="M 52 44.1875 
Q 55.375 50.25 60.0625 53.125 
Q 64.75 56 71.09375 56 
Q 79.640625 56 84.28125 50.015625 
Q 88.921875 44.046875 88.921875 33.015625 
L 88.921875 0 
L 79.890625 0 
L 79.890625 32.71875 
Q 79.890625 40.578125 77.09375 44.375 
Q 74.3125 48.1875 68.609375 48.1875 
Q 61.625 48.1875 57.5625 43.546875 
Q 53.515625 38.921875 53.515625 30.90625 
L 53.515625 0 
L 44.484375 0 
L 44.484375 32.71875 
Q 44.484375 40.625 41.703125 44.40625 
Q 38.921875 48.1875 33.109375 48.1875 
Q 26.21875 48.1875 22.15625 43.53125 
Q 18.109375 38.875 18.109375 30.90625 
L 18.109375 0 
L 9.078125 0 
L 9.078125 54.6875 
L 18.109375 54.6875 
L 18.109375 46.1875 
Q 21.1875 51.21875 25.484375 53.609375 
Q 29.78125 56 35.6875 56 
Q 41.65625 56 45.828125 52.96875 
Q 50 49.953125 52 44.1875 
z
" id="DejaVuSans-109"/>
      <path d="M 48.6875 27.296875 
Q 48.6875 37.203125 44.609375 42.84375 
Q 40.53125 48.484375 33.40625 48.484375 
Q 26.265625 48.484375 22.1875 42.84375 
Q 18.109375 37.203125 18.109375 27.296875 
Q 18.109375 17.390625 22.1875 11.75 
Q 26.265625 6.109375 33.40625 6.109375 
Q 40.53125 6.109375 44.609375 11.75 
Q 48.6875 17.390625 48.6875 27.296875 
z
M 18.109375 46.390625 
Q 20.953125 51.265625 25.265625 53.625 
Q 29.59375 56 35.59375 56 
Q 45.5625 56 51.78125 48.09375 
Q 58.015625 40.1875 58.015625 27.296875 
Q 58.015625 14.40625 51.78125 6.484375 
Q 45.5625 -1.421875 35.59375 -1.421875 
Q 29.59375 -1.421875 25.265625 0.953125 
Q 20.953125 3.328125 18.109375 8.203125 
L 18.109375 0 
L 9.078125 0 
L 9.078125 75.984375 
L 18.109375 75.984375 
z
" id="DejaVuSans-98"/>
      <path d="M 56.203125 29.59375 
L 56.203125 25.203125 
L 14.890625 25.203125 
Q 15.484375 15.921875 20.484375 11.0625 
Q 25.484375 6.203125 34.421875 6.203125 
Q 39.59375 6.203125 44.453125 7.46875 
Q 49.3125 8.734375 54.109375 11.28125 
L 54.109375 2.78125 
Q 49.265625 0.734375 44.1875 -0.34375 
Q 39.109375 -1.421875 33.890625 -1.421875 
Q 20.796875 -1.421875 13.15625 6.1875 
Q 5.515625 13.8125 5.515625 26.8125 
Q 5.515625 40.234375 12.765625 48.109375 
Q 20.015625 56 32.328125 56 
Q 43.359375 56 49.78125 48.890625 
Q 56.203125 41.796875 56.203125 29.59375 
z
M 47.21875 32.234375 
Q 47.125 39.59375 43.09375 43.984375 
Q 39.0625 48.390625 32.421875 48.390625 
Q 24.90625 48.390625 20.390625 44.140625 
Q 15.875 39.890625 15.1875 32.171875 
z
" id="DejaVuSans-101"/>
      <path d="M 41.109375 46.296875 
Q 39.59375 47.171875 37.8125 47.578125 
Q 36.03125 48 33.890625 48 
Q 26.265625 48 22.1875 43.046875 
Q 18.109375 38.09375 18.109375 28.8125 
L 18.109375 0 
L 9.078125 0 
L 9.078125 54.6875 
L 18.109375 54.6875 
L 18.109375 46.1875 
Q 20.953125 51.171875 25.484375 53.578125 
Q 30.03125 56 36.53125 56 
Q 37.453125 56 38.578125 55.875 
Q 39.703125 55.765625 41.0625 55.515625 
z
" id="DejaVuSans-114"/>
      <path d="M 44.28125 53.078125 
L 44.28125 44.578125 
Q 40.484375 46.53125 36.375 47.5 
Q 32.28125 48.484375 27.875 48.484375 
Q 21.1875 48.484375 17.84375 46.4375 
Q 14.5 44.390625 14.5 40.28125 
Q 14.5 37.15625 16.890625 35.375 
Q 19.28125 33.59375 26.515625 31.984375 
L 29.59375 31.296875 
Q 39.15625 29.25 43.1875 25.515625 
Q 47.21875 21.78125 47.21875 15.09375 
Q 47.21875 7.46875 41.1875 3.015625 
Q 35.15625 -1.421875 24.609375 -1.421875 
Q 20.21875 -1.421875 15.453125 -0.5625 
Q 10.6875 0.296875 5.421875 2 
L 5.421875 11.28125 
Q 10.40625 8.6875 15.234375 7.390625 
Q 20.0625 6.109375 24.8125 6.109375 
Q 31.15625 6.109375 34.5625 8.28125 
Q 37.984375 10.453125 37.984375 14.40625 
Q 37.984375 18.0625 35.515625 20.015625 
Q 33.0625 21.96875 24.703125 23.78125 
L 21.578125 24.515625 
Q 13.234375 26.265625 9.515625 29.90625 
Q 5.8125 33.546875 5.8125 39.890625 
Q 5.8125 47.609375 11.28125 51.796875 
Q 16.75 56 26.8125 56 
Q 31.78125 56 36.171875 55.265625 
Q 40.578125 54.546875 44.28125 53.078125 
z
" id="DejaVuSans-115"/>
     </defs>
     <g transform="translate(199.28125 280.276563)scale(0.1 -0.1)">
      <use xlink:href="#DejaVuSans-110"/>
      <use x="63.378906" xlink:href="#DejaVuSans-117"/>
      <use x="126.757812" xlink:href="#DejaVuSans-109"/>
      <use x="224.169922" xlink:href="#DejaVuSans-98"/>
      <use x="287.646484" xlink:href="#DejaVuSans-101"/>
      <use x="349.169922" xlink:href="#DejaVuSans-114"/>
      <use x="390.283203" xlink:href="#DejaVuSans-115"/>
     </g>
    </g>
   </g>
   <g id="matplotlib.axis_2">
    <g id="ytick_1">
     <g id="line2d_7">
      <defs>
       <path d="M 0 0 
L -3.5 0 
" id="md912a4a2cb" style="stroke:#000000;stroke-width:0.8;"/>
      </defs>
      <g>
       <use style="stroke:#000000;stroke-width:0.8;" x="54" xlink:href="#md912a4a2cb" y="177.812912"/>
      </g>
     </g>
     <g id="text_8">
      <!-- $\mathdefault{10^{-2}}$ -->
      <defs>
       <path d="M 10.59375 35.5 
L 73.1875 35.5 
L 73.1875 27.203125 
L 10.59375 27.203125 
z
" id="DejaVuSans-8722"/>
      </defs>
      <g transform="translate(23.5 181.61213)scale(0.1 -0.1)">
       <use transform="translate(0 0.765625)" xlink:href="#DejaVuSans-49"/>
       <use transform="translate(63.623047 0.765625)" xlink:href="#DejaVuSans-48"/>
       <use transform="translate(128.203125 39.046875)scale(0.7)" xlink:href="#DejaVuSans-8722"/>
       <use transform="translate(186.855469 39.046875)scale(0.7)" xlink:href="#DejaVuSans-50"/>
      </g>
     </g>
    </g>
    <g id="ytick_2">
     <g id="line2d_8">
      <g>
       <use style="stroke:#000000;stroke-width:0.8;" x="54" xlink:href="#md912a4a2cb" y="76.251529"/>
      </g>
     </g>
     <g id="text_9">
      <!-- $\mathdefault{10^{-1}}$ -->
      <g transform="translate(23.5 80.050748)scale(0.1 -0.1)">
       <use transform="translate(0 0.684375)" xlink:href="#DejaVuSans-49"/>
       <use transform="translate(63.623047 0.684375)" xlink:href="#DejaVuSans-48"/>
       <use transform="translate(128.203125 38.965625)scale(0.7)" xlink:href="#DejaVuSans-8722"/>
       <use transform="translate(186.855469 38.965625)scale(0.7)" xlink:href="#DejaVuSans-49"/>
      </g>
     </g>
    </g>
    <g id="ytick_3">
     <g id="line2d_9">
      <defs>
       <path d="M 0 0 
L -2 0 
" id="m1d9469b4b6" style="stroke:#000000;stroke-width:0.6;"/>
      </defs>
      <g>
       <use style="stroke:#000000;stroke-width:0.6;" x="54" xlink:href="#m1d9469b4b6" y="248.801272"/>
      </g>
     </g>
    </g>
    <g id="ytick_4">
     <g id="line2d_10">
      <g>
       <use style="stroke:#000000;stroke-width:0.6;" x="54" xlink:href="#m1d9469b4b6" y="230.9172"/>
      </g>
     </g>
    </g>
    <g id="ytick_5">
     <g id="line2d_11">
      <g>
       <use style="stroke:#000000;stroke-width:0.6;" x="54" xlink:href="#m1d9469b4b6" y="218.228249"/>
      </g>
     </g>
    </g>
    <g id="ytick_6">
     <g id="line2d_12">
      <g>
       <use style="stroke:#000000;stroke-width:0.6;" x="54" xlink:href="#m1d9469b4b6" y="208.385934"/>
      </g>
     </g>
    </g>
    <g id="ytick_7">
     <g id="line2d_13">
      <g>
       <use style="stroke:#000000;stroke-width:0.6;" x="54" xlink:href="#m1d9469b4b6" y="200.344177"/>
      </g>
     </g>
    </g>
    <g id="ytick_8">
     <g id="line2d_14">
      <g>
       <use style="stroke:#000000;stroke-width:0.6;" x="54" xlink:href="#m1d9469b4b6" y="193.544969"/>
      </g>
     </g>
    </g>
    <g id="ytick_9">
     <g id="line2d_15">
      <g>
       <use style="stroke:#000000;stroke-width:0.6;" x="54" xlink:href="#m1d9469b4b6" y="187.655227"/>
      </g>
     </g>
    </g>
    <g id="ytick_10">
     <g id="line2d_16">
      <g>
       <use style="stroke:#000000;stroke-width:0.6;" x="54" xlink:href="#m1d9469b4b6" y="182.460106"/>
      </g>
     </g>
    </g>
    <g id="ytick_11">
     <g id="line2d_17">
      <g>
       <use style="stroke:#000000;stroke-width:0.6;" x="54" xlink:href="#m1d9469b4b6" y="147.239889"/>
      </g>
     </g>
    </g>
    <g id="ytick_12">
     <g id="line2d_18">
      <g>
       <use style="stroke:#000000;stroke-width:0.6;" x="54" xlink:href="#m1d9469b4b6" y="129.355817"/>
      </g>
     </g>
    </g>
    <g id="ytick_13">
     <g id="line2d_19">
      <g>
       <use style="stroke:#000000;stroke-width:0.6;" x="54" xlink:href="#m1d9469b4b6" y="116.666866"/>
      </g>
     </g>
    </g>
    <g id="ytick_14">
     <g id="line2d_20">
      <g>
       <use style="stroke:#000000;stroke-width:0.6;" x="54" xlink:href="#m1d9469b4b6" y="106.824552"/>
      </g>
     </g>
    </g>
    <g id="ytick_15">
     <g id="line2d_21">
      <g>
       <use style="stroke:#000000;stroke-width:0.6;" x="54" xlink:href="#m1d9469b4b6" y="98.782795"/>
      </g>
     </g>
    </g>
    <g id="ytick_16">
     <g id="line2d_22">
      <g>
       <use style="stroke:#000000;stroke-width:0.6;" x="54" xlink:href="#m1d9469b4b6" y="91.983586"/>
      </g>
     </g>
    </g>
    <g id="ytick_17">
     <g id="line2d_23">
      <g>
       <use style="stroke:#000000;stroke-width:0.6;" x="54" xlink:href="#m1d9469b4b6" y="86.093844"/>
      </g>
     </g>
    </g>
    <g id="ytick_18">
     <g id="line2d_24">
      <g>
       <use style="stroke:#000000;stroke-width:0.6;" x="54" xlink:href="#m1d9469b4b6" y="80.898723"/>
      </g>
     </g>
    </g>
    <g id="ytick_19">
     <g id="line2d_25">
      <g>
       <use style="stroke:#000000;stroke-width:0.6;" x="54" xlink:href="#m1d9469b4b6" y="45.678506"/>
      </g>
     </g>
    </g>
    <g id="text_10">
     <!-- MSE -->
     <defs>
      <path d="M 9.8125 72.90625 
L 24.515625 72.90625 
L 43.109375 23.296875 
L 61.8125 72.90625 
L 76.515625 72.90625 
L 76.515625 0 
L 66.890625 0 
L 66.890625 64.015625 
L 48.09375 14.015625 
L 38.1875 14.015625 
L 19.390625 64.015625 
L 19.390625 0 
L 9.8125 0 
z
" id="DejaVuSans-77"/>
      <path d="M 53.515625 70.515625 
L 53.515625 60.890625 
Q 47.90625 63.578125 42.921875 64.890625 
Q 37.9375 66.21875 33.296875 66.21875 
Q 25.25 66.21875 20.875 63.09375 
Q 16.5 59.96875 16.5 54.203125 
Q 16.5 49.359375 19.40625 46.890625 
Q 22.3125 44.4375 30.421875 42.921875 
L 36.375 41.703125 
Q 47.40625 39.59375 52.65625 34.296875 
Q 57.90625 29 57.90625 20.125 
Q 57.90625 9.515625 50.796875 4.046875 
Q 43.703125 -1.421875 29.984375 -1.421875 
Q 24.8125 -1.421875 18.96875 -0.25 
Q 13.140625 0.921875 6.890625 3.21875 
L 6.890625 13.375 
Q 12.890625 10.015625 18.65625 8.296875 
Q 24.421875 6.59375 29.984375 6.59375 
Q 38.421875 6.59375 43.015625 9.90625 
Q 47.609375 13.234375 47.609375 19.390625 
Q 47.609375 24.75 44.3125 27.78125 
Q 41.015625 30.8125 33.5 32.328125 
L 27.484375 33.5 
Q 16.453125 35.6875 11.515625 40.375 
Q 6.59375 45.0625 6.59375 53.421875 
Q 6.59375 63.09375 13.40625 68.65625 
Q 20.21875 74.21875 32.171875 74.21875 
Q 37.3125 74.21875 42.625 73.28125 
Q 47.953125 72.359375 53.515625 70.515625 
z
" id="DejaVuSans-83"/>
      <path d="M 9.8125 72.90625 
L 55.90625 72.90625 
L 55.90625 64.59375 
L 19.671875 64.59375 
L 19.671875 43.015625 
L 54.390625 43.015625 
L 54.390625 34.71875 
L 19.671875 34.71875 
L 19.671875 8.296875 
L 56.78125 8.296875 
L 56.78125 0 
L 9.8125 0 
z
" id="DejaVuSans-69"/>
     </defs>
     <g transform="translate(17.420313 153.927656)rotate(-90)scale(0.1 -0.1)">
      <use xlink:href="#DejaVuSans-77"/>
      <use x="86.279297" xlink:href="#DejaVuSans-83"/>
      <use x="149.755859" xlink:href="#DejaVuSans-69"/>
     </g>
    </g>
   </g>
   <g id="line2d_26">
    <path clip-path="url(#p49a3c4cb8f)" d="M 69.218182 44.443636 
L 71.046192 91.731827 
L 71.35086 94.710299 
L 71.960197 96.876121 
L 72.569533 100.399288 
L 72.874201 100.545441 
L 73.17887 102.370523 
L 73.483538 107.221363 
L 74.092875 112.155707 
L 74.397543 116.168964 
L 74.702211 116.937156 
L 75.00688 121.309717 
L 75.616216 126.455415 
L 76.530221 138.270824 
L 76.834889 143.841735 
L 77.139558 147.310828 
L 77.748894 156.302575 
L 78.358231 161.417127 
L 78.662899 162.436721 
L 78.967568 164.397997 
L 80.186241 180.27413 
L 80.490909 179.339553 
L 80.795577 178.970424 
L 81.404914 181.728389 
L 81.709582 178.215613 
L 82.014251 177.961612 
L 82.318919 176.437826 
L 82.928256 180.400801 
L 83.232924 177.776421 
L 83.537592 182.431029 
L 83.84226 183.850167 
L 84.146929 184.190308 
L 84.451597 186.442553 
L 84.756265 183.244327 
L 85.365602 187.240711 
L 85.67027 186.549347 
L 85.974939 188.896308 
L 86.279607 189.451814 
L 86.584275 191.337477 
L 86.888943 190.267598 
L 87.49828 190.827124 
L 87.802948 191.403538 
L 88.107617 192.687815 
L 88.412285 195.570282 
L 88.716953 193.452925 
L 89.021622 194.702682 
L 89.32629 193.046263 
L 89.630958 190.435976 
L 89.935627 193.301424 
L 90.240295 194.00951 
L 90.544963 195.573182 
L 90.849631 192.724803 
L 91.1543 193.276908 
L 91.458968 195.483775 
L 91.763636 196.693471 
L 92.068305 196.684891 
L 92.372973 194.253073 
L 92.98231 198.977615 
L 93.591646 200.266313 
L 93.896314 200.271402 
L 94.200983 198.309562 
L 94.810319 200.253603 
L 95.114988 197.768127 
L 95.419656 200.027487 
L 95.724324 197.914841 
L 96.028993 199.938069 
L 96.333661 200.981708 
L 96.638329 201.576199 
L 96.942998 200.992479 
L 97.247666 199.772297 
L 97.552334 201.980759 
L 97.857002 199.21773 
L 98.161671 202.176561 
L 98.466339 201.61337 
L 98.771007 204.683421 
L 99.075676 204.138145 
L 99.380344 204.131117 
L 99.685012 204.479383 
L 100.294349 201.820271 
L 100.599017 204.485797 
L 100.903686 205.498073 
L 101.208354 204.563054 
L 101.513022 203.168989 
L 101.81769 204.838448 
L 102.122359 203.583979 
L 102.427027 206.61663 
L 102.731695 205.240306 
L 103.036364 204.537052 
L 103.341032 204.794531 
L 103.6457 207.505605 
L 104.255037 204.27267 
L 104.559705 208.769027 
L 104.864373 208.076051 
L 105.169042 205.397495 
L 105.47371 208.840045 
L 105.778378 207.153657 
L 106.083047 207.065328 
L 106.387715 206.50343 
L 106.692383 208.505285 
L 106.997052 207.503383 
L 107.30172 208.317847 
L 107.606388 207.751792 
L 107.911057 208.125644 
L 108.215725 207.189676 
L 108.520393 206.813822 
L 108.825061 206.205593 
L 109.12973 210.475402 
L 109.434398 208.423941 
L 109.739066 209.42167 
L 110.043735 209.0767 
L 110.348403 209.498351 
L 110.653071 211.598883 
L 110.95774 208.927766 
L 111.262408 211.947477 
L 111.567076 209.86217 
L 111.871744 211.062781 
L 112.176413 211.607243 
L 112.481081 210.362403 
L 112.785749 212.81764 
L 113.090418 208.033078 
L 113.395086 211.969179 
L 113.699754 212.582564 
L 114.004423 208.931909 
L 114.309091 209.529267 
L 114.613759 215.12337 
L 114.918428 212.240517 
L 115.223096 212.580368 
L 115.527764 213.381164 
L 115.832432 212.063642 
L 116.137101 211.496063 
L 116.441769 213.791571 
L 116.746437 214.135838 
L 117.051106 212.385191 
L 117.355774 213.191722 
L 117.660442 210.524147 
L 117.965111 213.490708 
L 118.269779 214.596567 
L 118.574447 214.867086 
L 118.879115 215.703528 
L 119.183784 213.773521 
L 119.488452 212.978908 
L 120.097789 214.459131 
L 120.402457 212.237258 
L 120.707125 214.773576 
L 121.011794 212.910859 
L 121.316462 215.515502 
L 121.62113 216.207721 
L 121.925799 219.043986 
L 122.230467 214.077594 
L 122.535135 215.126107 
L 122.839803 214.250262 
L 123.144472 213.993063 
L 123.44914 216.881743 
L 123.753808 217.291341 
L 124.058477 214.946265 
L 124.363145 217.285344 
L 124.667813 217.00632 
L 124.972482 217.759379 
L 125.27715 216.233799 
L 125.581818 215.475492 
L 126.191155 217.158956 
L 126.495823 216.238608 
L 126.800491 217.514312 
L 127.10516 216.680804 
L 127.409828 217.623553 
L 127.714496 219.420804 
L 128.019165 217.872779 
L 128.323833 218.763602 
L 128.628501 222.593091 
L 128.93317 215.935752 
L 129.237838 219.155949 
L 129.542506 218.676655 
L 129.847174 221.198881 
L 130.456511 217.179679 
L 130.761179 217.754207 
L 131.065848 216.188091 
L 131.675184 219.667092 
L 131.979853 220.319067 
L 132.284521 218.641878 
L 132.589189 218.911296 
L 132.893857 221.90527 
L 133.198526 221.212991 
L 133.503194 222.183377 
L 133.807862 219.750502 
L 134.417199 223.307069 
L 134.721867 220.273434 
L 135.026536 219.715153 
L 135.331204 219.917102 
L 135.635872 221.027381 
L 135.940541 220.632212 
L 136.245209 218.501069 
L 136.549877 220.222123 
L 136.854545 220.829077 
L 137.159214 223.506383 
L 137.463882 220.167151 
L 138.073219 221.243336 
L 138.377887 223.292555 
L 138.682555 222.920785 
L 138.987224 220.949117 
L 139.291892 221.515675 
L 139.59656 222.663772 
L 139.901229 223.281541 
L 140.205897 222.707767 
L 140.510565 222.828004 
L 141.119902 219.696192 
L 141.42457 222.247373 
L 141.729238 223.45458 
L 142.033907 221.613591 
L 142.338575 222.227092 
L 142.643243 221.592744 
L 142.947912 222.374953 
L 143.25258 221.059733 
L 143.557248 222.371656 
L 143.861916 221.939353 
L 144.166585 220.891988 
L 144.471253 220.327631 
L 144.775921 222.971755 
L 145.08059 222.103678 
L 145.385258 224.533879 
L 145.689926 222.977868 
L 145.994595 220.837954 
L 146.603931 224.902032 
L 146.9086 222.08527 
L 147.213268 222.323231 
L 147.517936 224.942249 
L 147.822604 221.751658 
L 148.127273 220.990523 
L 148.431941 224.402266 
L 148.736609 222.183745 
L 149.041278 224.875105 
L 149.345946 225.439831 
L 149.650614 222.950116 
L 149.955283 225.440212 
L 150.259951 222.911748 
L 150.564619 224.412626 
L 151.478624 222.793774 
L 151.783292 226.699328 
L 152.392629 224.343065 
L 152.697297 225.699031 
L 153.001966 224.27652 
L 153.306634 224.576363 
L 153.611302 226.484316 
L 153.915971 225.892447 
L 154.220639 223.476683 
L 154.525307 223.940403 
L 154.829975 225.996573 
L 155.134644 224.328012 
L 155.439312 225.655119 
L 155.74398 223.606377 
L 156.048649 225.676036 
L 156.353317 225.610043 
L 156.962654 222.581795 
L 157.267322 223.73797 
L 157.57199 226.26828 
L 157.876658 225.394464 
L 158.181327 223.813328 
L 158.485995 225.52555 
L 158.790663 226.330706 
L 159.095332 224.753046 
L 159.4 226.491502 
L 159.704668 226.438351 
L 160.009337 226.218061 
L 160.314005 228.471021 
L 160.618673 225.857372 
L 160.923342 225.644605 
L 161.22801 225.808738 
L 161.532678 225.188819 
L 161.837346 226.790067 
L 162.142015 225.322832 
L 162.446683 225.116859 
L 162.751351 226.648405 
L 163.05602 226.2304 
L 163.360688 224.699426 
L 163.665356 227.289384 
L 163.970025 226.765546 
L 164.274693 228.582622 
L 164.579361 226.688469 
L 164.884029 228.321977 
L 165.188698 228.302403 
L 165.493366 227.05044 
L 165.798034 227.856269 
L 166.102703 225.645289 
L 166.407371 228.730934 
L 166.712039 226.037268 
L 167.016708 225.410502 
L 167.321376 225.12878 
L 167.626044 228.412019 
L 167.930713 226.329898 
L 168.235381 228.528496 
L 168.540049 226.03828 
L 168.844717 225.938571 
L 169.149386 228.173394 
L 169.454054 226.986073 
L 169.758722 227.77014 
L 170.063391 226.558153 
L 170.368059 226.997112 
L 170.672727 225.736442 
L 170.977396 227.505699 
L 171.282064 226.62537 
L 171.586732 227.864551 
L 171.8914 226.386703 
L 172.196069 227.629752 
L 172.500737 224.99921 
L 172.805405 226.297831 
L 173.110074 229.086175 
L 173.414742 229.05125 
L 174.024079 226.826871 
L 174.328747 226.549157 
L 174.633415 227.86634 
L 174.938084 228.440236 
L 175.242752 227.748808 
L 175.54742 228.121458 
L 176.156757 226.71136 
L 176.461425 228.11501 
L 176.766093 227.233449 
L 177.070762 227.153747 
L 177.37543 229.370789 
L 177.680098 225.977566 
L 177.984767 227.637785 
L 178.289435 228.028345 
L 178.594103 229.576043 
L 178.898771 228.488308 
L 179.20344 226.680949 
L 179.508108 229.451574 
L 179.812776 229.430923 
L 180.117445 227.000683 
L 180.422113 228.453031 
L 180.726781 227.03109 
L 181.336118 226.930468 
L 181.640786 228.651324 
L 181.945455 227.608526 
L 182.250123 230.307051 
L 182.554791 227.792438 
L 182.859459 227.299071 
L 183.164128 226.589221 
L 183.773464 227.404063 
L 184.078133 228.136825 
L 184.382801 226.477041 
L 184.687469 229.041305 
L 184.992138 230.478301 
L 185.296806 226.108702 
L 185.601474 229.67319 
L 185.906143 229.02584 
L 186.210811 229.606348 
L 186.820147 226.717693 
L 187.124816 228.181063 
L 187.429484 231.088923 
L 187.734152 228.489853 
L 188.038821 229.174261 
L 188.343489 228.115996 
L 188.648157 229.214256 
L 188.952826 228.308285 
L 189.257494 226.931519 
L 189.86683 228.062094 
L 190.171499 229.048858 
L 190.476167 228.202157 
L 190.780835 228.778463 
L 191.085504 228.464609 
L 191.390172 229.915578 
L 191.69484 227.980522 
L 191.999509 228.679383 
L 192.304177 228.296441 
L 192.608845 227.306908 
L 192.913514 225.47387 
L 193.218182 228.060233 
L 193.52285 229.457909 
L 193.827518 228.532096 
L 194.132187 226.051579 
L 194.436855 227.742698 
L 194.741523 228.218274 
L 195.35086 227.097823 
L 195.655528 229.321668 
L 195.960197 228.61013 
L 196.264865 229.750711 
L 196.874201 227.694206 
L 197.17887 230.010696 
L 197.483538 228.13993 
L 197.788206 228.996619 
L 198.092875 229.151147 
L 198.397543 226.123227 
L 199.00688 229.238497 
L 199.311548 228.879881 
L 199.616216 226.869933 
L 199.920885 227.318237 
L 200.225553 229.049373 
L 200.530221 229.731929 
L 200.834889 228.337666 
L 201.444226 230.604418 
L 201.748894 228.955482 
L 202.053563 229.657179 
L 202.358231 229.678615 
L 202.662899 230.656896 
L 202.967568 228.709898 
L 203.272236 229.739974 
L 203.576904 228.650921 
L 203.881572 230.564457 
L 204.186241 230.300056 
L 204.795577 228.166665 
L 205.100246 230.197542 
L 205.404914 229.766703 
L 206.014251 227.063054 
L 206.623587 231.410727 
L 206.928256 228.034136 
L 207.232924 230.016005 
L 207.537592 229.324959 
L 207.84226 229.89415 
L 208.146929 229.509736 
L 208.451597 229.376898 
L 208.756265 229.689198 
L 209.060934 229.335817 
L 209.365602 230.400504 
L 209.67027 227.174261 
L 209.974939 230.87665 
L 210.584275 228.84738 
L 210.888943 228.659779 
L 211.193612 229.688202 
L 211.49828 228.248817 
L 211.802948 230.722433 
L 212.107617 227.87203 
L 212.412285 230.765621 
L 212.716953 230.980968 
L 213.021622 229.966994 
L 213.32629 231.550428 
L 213.630958 229.388757 
L 213.935627 229.900375 
L 214.240295 227.755136 
L 214.849631 231.311823 
L 215.1543 230.688079 
L 215.458968 229.554839 
L 215.763636 229.469058 
L 216.068305 230.811567 
L 216.372973 229.717618 
L 216.677641 227.367289 
L 217.286978 231.23346 
L 217.591646 230.838058 
L 217.896314 229.408472 
L 218.200983 228.752851 
L 218.505651 229.792544 
L 218.810319 229.920447 
L 219.114988 227.728092 
L 219.419656 230.921123 
L 219.724324 228.634532 
L 220.028993 231.254338 
L 220.333661 227.274587 
L 220.638329 230.292806 
L 220.942998 227.898731 
L 221.247666 229.335081 
L 221.552334 229.181112 
L 221.857002 227.101468 
L 222.161671 230.048591 
L 222.466339 228.218425 
L 222.771007 231.907424 
L 223.075676 232.13413 
L 223.380344 229.047752 
L 223.685012 232.49776 
L 223.989681 231.463872 
L 224.294349 229.832219 
L 224.599017 231.634422 
L 225.208354 230.69567 
L 225.513022 228.566427 
L 225.81769 227.752494 
L 226.122359 230.042338 
L 226.427027 230.79527 
L 227.036364 229.202062 
L 227.6457 231.448791 
L 227.950369 229.854853 
L 228.255037 227.609275 
L 228.864373 231.082033 
L 229.169042 231.124361 
L 229.778378 226.751531 
L 230.083047 231.944966 
L 230.387715 228.827675 
L 230.692383 231.680864 
L 230.997052 231.873412 
L 231.30172 228.065023 
L 231.606388 230.586991 
L 231.911057 229.415734 
L 232.520393 231.62331 
L 232.825061 228.448438 
L 233.12973 231.801023 
L 233.434398 231.30821 
L 233.739066 227.189663 
L 234.043735 231.235749 
L 234.348403 231.677677 
L 234.653071 231.065313 
L 234.95774 231.41752 
L 235.262408 228.959293 
L 235.567076 227.804271 
L 235.871744 230.836554 
L 236.176413 229.742787 
L 236.481081 231.215204 
L 236.785749 231.683009 
L 237.090418 231.216283 
L 237.395086 231.119574 
L 237.699754 231.448552 
L 238.004423 229.362682 
L 238.309091 228.165385 
L 238.918428 232.432906 
L 239.223096 231.12767 
L 239.832432 229.856137 
L 240.137101 229.66176 
L 240.441769 233.201996 
L 240.746437 231.455638 
L 241.051106 231.824537 
L 241.660442 229.754612 
L 241.965111 231.279367 
L 242.269779 230.677523 
L 242.574447 230.880723 
L 242.879115 231.218844 
L 243.183784 228.759754 
L 243.488452 232.003664 
L 243.79312 230.422247 
L 244.097789 230.437655 
L 244.402457 231.112043 
L 244.707125 230.21303 
L 245.011794 230.599384 
L 245.316462 232.40465 
L 245.62113 228.25017 
L 245.925799 230.938997 
L 246.230467 229.77755 
L 246.535135 229.645381 
L 246.839803 228.795016 
L 247.144472 229.068015 
L 247.44914 230.643915 
L 247.753808 233.334469 
L 248.058477 232.498087 
L 248.363145 231.005874 
L 248.667813 230.804437 
L 248.972482 229.374696 
L 249.27715 230.716431 
L 249.581818 228.939522 
L 249.886486 228.944521 
L 250.191155 233.305175 
L 251.10516 229.959182 
L 251.409828 229.789114 
L 251.714496 229.403494 
L 252.019165 232.335376 
L 252.93317 230.099474 
L 253.237838 231.850287 
L 253.542506 231.828605 
L 254.151843 232.118607 
L 254.456511 231.565255 
L 254.761179 233.287815 
L 255.065848 229.802032 
L 255.370516 231.771486 
L 255.675184 230.171281 
L 256.284521 234.879998 
L 256.893857 229.516037 
L 257.503194 233.879092 
L 257.807862 229.533281 
L 258.112531 232.29151 
L 258.417199 232.182577 
L 258.721867 231.266689 
L 259.331204 231.899362 
L 259.635872 234.915875 
L 259.940541 230.900005 
L 260.549877 231.886241 
L 260.854545 229.68514 
L 261.159214 229.8506 
L 261.463882 232.740024 
L 261.76855 232.457164 
L 262.377887 230.684936 
L 262.682555 232.718353 
L 262.987224 231.111194 
L 263.291892 232.647011 
L 263.59656 229.695843 
L 263.901229 234.662845 
L 264.205897 232.810195 
L 264.510565 229.807877 
L 264.815233 231.834354 
L 265.119902 232.631613 
L 265.42457 232.16528 
L 265.729238 231.90316 
L 266.033907 231.990642 
L 266.338575 230.217976 
L 266.643243 234.730542 
L 266.947912 230.675967 
L 267.25258 231.540927 
L 267.557248 231.398294 
L 267.861916 233.193885 
L 268.166585 230.440913 
L 268.471253 233.118233 
L 268.775921 232.612538 
L 269.08059 231.072344 
L 269.385258 231.288825 
L 269.689926 232.322055 
L 269.994595 231.474067 
L 270.299263 229.391267 
L 270.603931 232.25357 
L 271.213268 232.065391 
L 271.822604 230.907369 
L 272.127273 230.370301 
L 272.431941 232.990414 
L 273.345946 229.084891 
L 273.650614 232.331661 
L 273.955283 232.441566 
L 274.259951 232.118543 
L 274.564619 230.630462 
L 274.869287 233.084709 
L 275.173956 229.334242 
L 275.478624 232.056847 
L 275.783292 231.215931 
L 276.087961 231.87628 
L 276.392629 231.854518 
L 276.697297 230.555082 
L 277.001966 233.967725 
L 277.306634 229.875768 
L 277.611302 232.550755 
L 277.915971 233.132021 
L 278.220639 232.554357 
L 278.525307 231.38235 
L 278.829975 230.894581 
L 279.439312 231.312766 
L 280.048649 234.180991 
L 280.353317 234.540425 
L 280.657985 229.91195 
L 280.962654 234.205186 
L 281.267322 232.356418 
L 281.57199 233.330828 
L 281.876658 233.626561 
L 282.181327 232.932203 
L 282.485995 233.343192 
L 282.790663 231.80964 
L 283.095332 233.27521 
L 283.4 233.372957 
L 284.009337 230.86847 
L 284.314005 230.495007 
L 284.618673 230.738157 
L 284.923342 231.30963 
L 285.22801 230.874058 
L 285.532678 233.61989 
L 285.837346 233.37375 
L 286.142015 233.497194 
L 286.446683 229.620706 
L 286.751351 230.326205 
L 287.05602 232.584017 
L 287.360688 232.781357 
L 287.665356 234.622716 
L 287.970025 232.831461 
L 288.274693 236.006958 
L 288.579361 231.048486 
L 289.188698 232.599491 
L 289.493366 232.377258 
L 289.798034 231.242956 
L 290.102703 230.848775 
L 290.407371 232.621656 
L 290.712039 231.338641 
L 291.016708 232.459794 
L 291.321376 232.555654 
L 291.626044 234.230649 
L 291.930713 233.677698 
L 292.235381 231.659344 
L 292.540049 234.829874 
L 292.844717 234.066763 
L 293.149386 230.408723 
L 293.454054 233.904272 
L 293.758722 233.070405 
L 294.063391 232.944498 
L 294.368059 234.115394 
L 294.672727 232.982604 
L 294.977396 232.756853 
L 295.282064 230.929617 
L 295.586732 232.749323 
L 295.8914 231.562768 
L 296.196069 233.260822 
L 296.500737 233.463693 
L 296.805405 231.028186 
L 297.110074 232.035119 
L 297.414742 235.022515 
L 297.71941 232.276218 
L 298.024079 232.965245 
L 298.328747 232.29939 
L 298.938084 233.43714 
L 299.242752 234.406652 
L 299.54742 231.306718 
L 299.852088 233.286854 
L 300.156757 233.712934 
L 300.461425 234.723735 
L 300.766093 232.250804 
L 301.070762 233.186936 
L 301.37543 234.631969 
L 301.680098 233.315908 
L 301.984767 233.580342 
L 302.289435 233.657943 
L 302.594103 234.385898 
L 302.898771 234.36766 
L 303.20344 235.637874 
L 303.508108 233.275401 
L 303.812776 232.514447 
L 304.117445 232.692939 
L 304.422113 233.127169 
L 304.726781 235.552463 
L 305.03145 233.068065 
L 305.336118 233.191939 
L 305.640786 233.871305 
L 305.945455 230.477281 
L 306.250123 232.588795 
L 306.554791 235.486504 
L 306.859459 233.801854 
L 307.164128 233.177938 
L 307.468796 233.022983 
L 307.773464 233.536304 
L 308.078133 235.782911 
L 308.382801 233.248614 
L 308.687469 232.069239 
L 308.992138 234.123905 
L 309.296806 235.160372 
L 309.601474 233.788736 
L 309.906143 234.654401 
L 310.210811 232.86011 
L 310.515479 232.156041 
L 310.820147 235.007343 
L 311.124816 232.76362 
L 311.429484 234.68288 
L 311.734152 234.710019 
L 312.343489 234.469085 
L 312.648157 234.716052 
L 312.952826 234.158394 
L 313.257494 232.223401 
L 313.86683 233.982698 
L 314.171499 232.39991 
L 314.476167 233.749881 
L 314.780835 232.751946 
L 315.085504 234.359272 
L 315.390172 232.652743 
L 315.69484 232.302809 
L 315.999509 235.641783 
L 316.304177 233.914782 
L 316.608845 231.297153 
L 316.913514 236.109287 
L 317.218182 235.160353 
L 317.52285 235.87748 
L 317.827518 234.420786 
L 318.132187 234.690728 
L 318.436855 236.932893 
L 318.741523 234.065271 
L 319.046192 236.985596 
L 319.35086 236.740364 
L 319.655528 235.135828 
L 319.960197 235.499244 
L 320.264865 234.334294 
L 320.569533 236.624327 
L 320.874201 236.282858 
L 321.17887 235.515928 
L 321.483538 234.298639 
L 321.788206 234.365949 
L 322.092875 233.445578 
L 322.397543 235.259643 
L 322.702211 234.77001 
L 323.00688 235.092791 
L 323.311548 234.050435 
L 323.616216 235.332636 
L 323.920885 233.568624 
L 324.225553 235.726555 
L 324.530221 232.980699 
L 324.834889 236.897083 
L 325.139558 237.249804 
L 325.444226 233.377394 
L 325.748894 234.387513 
L 326.053563 236.392026 
L 326.358231 236.628457 
L 326.662899 235.555627 
L 327.272236 236.496853 
L 327.576904 234.14321 
L 327.881572 234.355671 
L 328.186241 235.123343 
L 328.490909 235.406903 
L 328.795577 234.850123 
L 329.100246 235.695979 
L 329.709582 234.48456 
L 330.014251 237.062894 
L 330.318919 236.698005 
L 330.623587 236.549221 
L 330.928256 235.606625 
L 331.232924 236.084056 
L 331.537592 234.445209 
L 331.84226 236.26745 
L 332.146929 234.936366 
L 332.451597 237.009069 
L 332.756265 234.374486 
L 333.060934 236.74908 
L 333.365602 236.674034 
L 333.67027 237.022838 
L 333.974939 236.625644 
L 334.279607 238.613266 
L 334.888943 234.272402 
L 335.193612 236.128753 
L 335.49828 234.328324 
L 335.802948 236.651967 
L 336.107617 233.639955 
L 336.412285 233.349688 
L 336.716953 236.068048 
L 337.021622 235.479989 
L 337.32629 235.507551 
L 337.630958 237.035499 
L 337.935627 234.238628 
L 338.240295 237.668851 
L 338.544963 235.885092 
L 338.849631 235.889219 
L 339.1543 236.524872 
L 339.458968 235.647373 
L 339.763636 236.892359 
L 340.068305 235.57622 
L 340.372973 235.626179 
L 340.677641 235.922552 
L 340.98231 237.505118 
L 341.286978 235.857791 
L 341.591646 235.973945 
L 341.896314 236.81219 
L 342.200983 236.291286 
L 342.505651 238.381394 
L 343.114988 234.231583 
L 343.419656 237.046945 
L 343.724324 236.95651 
L 344.028993 237.571641 
L 344.333661 237.778437 
L 344.638329 237.222862 
L 344.942998 235.486531 
L 345.247666 236.724835 
L 345.552334 239.405838 
L 345.857002 237.915921 
L 346.161671 238.917111 
L 346.466339 237.013314 
L 346.771007 237.303604 
L 347.075676 238.803238 
L 347.380344 235.649484 
L 347.685012 237.962113 
L 347.989681 236.819029 
L 348.294349 236.785267 
L 348.599017 238.904903 
L 348.903686 236.871503 
L 349.208354 235.843125 
L 349.513022 236.176442 
L 349.81769 238.616962 
L 350.122359 238.105296 
L 350.427027 236.68578 
L 350.731695 239.858893 
L 351.036364 238.109076 
L 351.341032 237.459585 
L 351.6457 234.430864 
L 352.255037 238.149393 
L 352.559705 237.428597 
L 352.864373 237.794354 
L 353.169042 235.909934 
L 353.47371 240.73267 
L 353.778378 236.54131 
L 354.083047 242.116364 
L 354.387715 237.978096 
L 354.692383 238.896464 
L 354.997052 235.86985 
L 355.30172 235.528551 
L 355.911057 237.872073 
L 356.215725 237.870611 
L 356.520393 237.70014 
L 357.12973 239.85266 
L 357.434398 239.165164 
L 357.739066 239.563171 
L 358.043735 234.921538 
L 358.348403 239.638433 
L 358.653071 237.657339 
L 358.95774 237.119571 
L 359.262408 240.024595 
L 359.567076 238.495771 
L 359.871744 239.490344 
L 360.176413 237.049084 
L 360.481081 240.341504 
L 360.785749 237.076374 
L 361.395086 238.462732 
L 361.699754 237.939308 
L 362.004423 238.362448 
L 362.309091 239.145263 
L 362.613759 239.379578 
L 362.918428 238.275301 
L 363.223096 238.719988 
L 363.527764 238.206486 
L 363.832432 239.337844 
L 364.137101 237.097394 
L 364.441769 238.350478 
L 364.746437 241.414437 
L 365.051106 239.137298 
L 365.355774 241.91476 
L 365.660442 237.182191 
L 365.965111 238.563166 
L 366.269779 238.326496 
L 366.574447 237.679728 
L 367.183784 239.591177 
L 367.488452 241.247306 
L 367.79312 241.128632 
L 368.097789 238.685123 
L 368.402457 239.653299 
L 368.707125 239.052041 
L 369.011794 236.609264 
L 369.316462 241.483706 
L 369.62113 237.329424 
L 369.925799 240.806024 
L 370.230467 241.087663 
L 370.535135 238.782113 
L 371.144472 237.769236 
L 371.44914 237.81959 
L 372.363145 240.865086 
L 372.667813 238.774545 
L 372.972482 240.632669 
L 373.27715 239.014461 
L 373.581818 240.505972 
L 373.581818 240.505972 
" style="fill:none;stroke:#1f77b4;stroke-linecap:square;stroke-width:1.5;"/>
   </g>
   <g id="patch_3">
    <path d="M 54 252 
L 54 34.56 
" style="fill:none;stroke:#000000;stroke-linecap:square;stroke-linejoin:miter;stroke-width:0.8;"/>
   </g>
   <g id="patch_4">
    <path d="M 388.8 252 
L 388.8 34.56 
" style="fill:none;stroke:#000000;stroke-linecap:square;stroke-linejoin:miter;stroke-width:0.8;"/>
   </g>
   <g id="patch_5">
    <path d="M 54 252 
L 388.8 252 
" style="fill:none;stroke:#000000;stroke-linecap:square;stroke-linejoin:miter;stroke-width:0.8;"/>
   </g>
   <g id="patch_6">
    <path d="M 54 34.56 
L 388.8 34.56 
" style="fill:none;stroke:#000000;stroke-linecap:square;stroke-linejoin:miter;stroke-width:0.8;"/>
   </g>
  </g>
 </g>
 <defs>
  <clipPath id="p49a3c4cb8f">
   <rect height="217.44" width="334.8" x="54" y="34.56"/>
  </clipPath>
 </defs>
</svg>
